<svg width="100" height="100" viewBox="0 0 100 100" fill="none" xmlns="http://www.w3.org/2000/svg" style="width: 131px; height: 131px;"><style>
     .line-heart1 {animation:line-heart1-pulse 2s infinite; transform-origin: 50px 50px;}
     @keyframes line-heart1-pulse{
         0% {transform: scale3d(1, 1, 1);}
         20% {transform: scale3d(.9, .9, .9);}
         35% {transform: scale3d(1, 1, 1);}
         50% {transform: scale3d(.9, .9, .9);}
         75% {transform: scale3d(1, 1, 1);}
         100% {transform: scale3d(1, 1, 1);}
     }
     @media (prefers-reduced-motion: reduce) {
         .line-heart1 {
             animation: none;
         }
     }
    </style><g class="line-heart1" style="animation-duration: 3s;"><g filter="url(#filter0_ii)"><path class="fill1" d="M81.5 60.3907C71.33 70.5606 54.8977 84.0893 50.2566 87.8709C49.5207 88.4705 48.4829 88.4632 47.7551 87.8538C43.2193 84.0562 27.355 70.5961 18 60.3907C10.2083 51.8907 6 47.5091 6 37.6407C6 27.7722 8.64859 20.1481 17 14.8907C23.354 10.8906 28.5 10.5116 33.5 11.3907C41.1588 12.7371 49 23.8907 49 23.8907C49 23.8907 57.3637 12.772 65.25 11.3907C70 10.5586 77.0203 11.4103 82.5 14.8907C90.8303 20.1815 93.5 27.7722 93.5 37.6407C93.5 47.5091 84 57.8907 81.5 60.3907Z" fill="rgba(209,24,24,1)" stroke-width="3.9px"></path></g><path class="stroke1" d="M81.5 60.3907C71.33 70.5606 54.8977 84.0893 50.2566 87.8709C49.5207 88.4705 48.4829 88.4632 47.7551 87.8538C43.2193 84.0562 27.355 70.5961 18 60.3907C10.2083 51.8907 6 47.5091 6 37.6407C6 27.7722 8.64859 20.1481 17 14.8907C23.354 10.8906 28.5 10.5116 33.5 11.3907C41.1588 12.7371 49 23.8907 49 23.8907C49 23.8907 57.3637 12.772 65.25 11.3907C70 10.5586 77.0203 11.4103 82.5 14.8907C90.8303 20.1815 93.5 27.7722 93.5 37.6407C93.5 47.5091 84 57.8907 81.5 60.3907Z" stroke="rgba(245,206,135,1)" stroke-width="3.9px"></path></g><defs><filter id="filter0_ii" x="3" y="6.00024" width="95.5" height="85.3156" filterUnits="userSpaceOnUse" color-interpolation-filters="sRGB"><feFlood flood-opacity="0" result="BackgroundImageFix"></feFlood><feBlend mode="normal" in="SourceGraphic" in2="BackgroundImageFix" result="shape"></feBlend><feColorMatrix in="SourceAlpha" type="matrix" values="0 0 0 0 0 0 0 0 0 0 0 0 0 0 0 0 0 0 127 0" result="hardAlpha"></feColorMatrix><feOffset dx="4" dy="-4"></feOffset><feGaussianBlur stdDeviation="2"></feGaussianBlur><feComposite in2="hardAlpha" operator="arithmetic" k2="-1" k3="1"></feComposite><feColorMatrix type="matrix" values="0 0 0 0 0 0 0 0 0 0 0 0 0 0 0 0 0 0 0.3 0"></feColorMatrix><feBlend mode="normal" in2="shape" result="effect1_innerShadow"></feBlend><feColorMatrix in="SourceAlpha" type="matrix" values="0 0 0 0 0 0 0 0 0 0 0 0 0 0 0 0 0 0 127 0" result="hardAlpha"></feColorMatrix><feOffset dx="-4" dy="4"></feOffset><feGaussianBlur stdDeviation="1"></feGaussianBlur><feComposite in2="hardAlpha" operator="arithmetic" k2="-1" k3="1"></feComposite><feColorMatrix type="matrix" values="0 0 0 0 1 0 0 0 0 1 0 0 0 0 1 0 0 0 0.3 0"></feColorMatrix><feBlend mode="normal" in2="effect1_innerShadow" result="effect2_innerShadow"></feBlend></filter></defs></svg>